<svg width="938" height="1034" xmlns="http://www.w3.org/2000/svg" xmlns:xlink="http://www.w3.org/1999/xlink" xml:space="preserve" overflow="hidden"><g transform="translate(-1502 -123)"><path d="M1933.4 1097.59C1615.92 1074.49 1868.33 725.962 1931.24 624.3 1997.86 752.848 2250.89 1120.68 1933.4 1097.59Z" fill="#FFFFFF" fill-rule="evenodd"/><path d="M2383.96 402.85C2508.68 690.656 2046.97 645.553 1917.28 641.721 2013.34 519.385 2259.24 115.044 2383.96 402.85Z" fill="#FFFFFF" fill-rule="evenodd"/><path d="M0.0828574 217.873C-6.5004-86.1125 380.689-17.6184 549.488 98.0982 359.106 162.301 6.66612 521.858 0.0828574 217.873Z" fill="#FFFFFF" fill-rule="evenodd" transform="matrix(0.0165549 0.999863 0.999863 -0.0165549 1831.61 141.858)"/><path d="M1956.47 643.428 1933.38 683.786 1914.06 641.49Z" fill="#020A6A" fill-rule="evenodd"/><path d="M2321.6 897.23C2054.82 1251.6 2063.56 742.569 1896.83 634.813 2058.5 637.163 2588.39 542.861 2321.6 897.23Z" fill="#FFFFFF" fill-rule="evenodd"/><path d="M1568.58 911.686C1355.63 587.326 1811.51 614.919 1936.69 612.509 1884.76 758.218 1781.54 1236.05 1568.58 911.686Z" fill="#FFFFFF" fill-rule="evenodd"/><path d="M1537.24 401.366C1705.96 80.5309 1945.22 497.259 2019.91 607.639 1858.61 620.464 1368.52 722.201 1537.24 401.366Z" fill="#FFFFFF" fill-rule="evenodd"/><path d="M1939.81 1048.57C1756.54 1037.74 1916 685.16 1956.29 582.72 1990.12 706.773 2123.08 1059.41 1939.81 1048.57Z" fill="#E8695A" fill-rule="evenodd"/><path d="M1934 1031.58C1750.74 1020.75 1910.19 668.167 1950.49 565.726 1984.31 689.78 2117.27 1042.42 1934 1031.58Z" fill="#020A6A" fill-rule="evenodd"/><path d="M1884.19 1019.5C1831.85 974.973 1839.4 832.491 1914.5 662.5" stroke="#E8695A" stroke-width="4.58333" stroke-miterlimit="8" fill="none" fill-rule="evenodd"/><path d="M2360.15 431.356C2436.98 618.943 2051.8 614.56 1942.73 619.306 2035.87 531.135 2283.31 243.769 2360.15 431.356Z" fill="#E8695A" fill-rule="evenodd"/><path d="M0.0683992 147.076C-5.36611-58.1305 314.261-11.8934 453.605 66.2215 296.444 109.562 5.50291 352.282 0.0683992 147.076Z" fill="#E8695A" fill-rule="evenodd" transform="matrix(0.0165549 0.999863 0.999863 -0.0165549 1901.14 178.237)"/><path d="M1577.6 419.23C1695.84 207.782 1941.13 586.787 1964.09 617.119 1861.73 588.123 1459.37 630.679 1577.6 419.23Z" fill="#E8695A" fill-rule="evenodd"/><path d="M1592.58 387.131C1727.83 186.139 1941.07 584.061 1961.45 616.181 1861.83 578.852 1457.33 588.122 1592.58 387.131Z" fill="#020A6A" fill-rule="evenodd"/><path d="M2349.29 407.884C2431.3 593.268 2046.15 599.566 1937.25 607.334 2027.91 516.615 2267.29 222.499 2349.29 407.884Z" fill="#020A6A" fill-rule="evenodd"/><path d="M0.0683992 147.076C-5.36611-58.1305 314.261-11.8934 453.605 66.2215 296.444 109.562 5.50291 352.282 0.0683992 147.076Z" fill="#020A6A" fill-rule="evenodd" transform="matrix(0.0165549 0.999863 0.999863 -0.0165549 1883.82 180.404)"/><path d="M1970.17 588.871 1950.1 621.431 1933.08 587.175Z" fill="#020A6A" fill-rule="evenodd"/><path d="M1609.5 889.986C1744.63 1149.81 1843.73 862.31 1957.79 543.155 2043.21 933.829 2103.15 1064.73 2239.86 913.841" stroke="#8D3979" stroke-width="13.75" stroke-linecap="round" stroke-linejoin="round" stroke-miterlimit="10" fill="none" fill-rule="evenodd"/><path d="M1616.82 917.444C1429.95 666.374 1931.05 595.355 1974.8 620.693 1724.42 707.108 1803.7 1168.51 1616.82 917.444Z" fill="#8D3979" fill-rule="evenodd"/><path d="M2293.04 878.663C2145.65 1057.23 2074.95 710.234 1932.85 596.038 2055.13 636.721 2440.43 700.099 2293.04 878.663Z" fill="#E8695A" fill-rule="evenodd"/><path d="M2312.97 850.69C2176.98 1038.08 2084.82 696.165 1935.88 591.039 2060.46 624.029 2448.96 663.295 2312.97 850.69Z" fill="#020A6A" fill-rule="evenodd"/><path d="M2263.01 903.5C2433.63 752.039 2312.89 663.725 2059.5 620.5" stroke="#E8695A" stroke-width="6.875" stroke-miterlimit="8" fill="none" fill-rule="evenodd"/><path d="M2351.97 499.246C2378.85 457.864 2346.77 353.663 2281.99 348.853 2217.21 344.043 2149.32 387.393 1997.5 543.5" stroke="#E8695A" stroke-width="6.875" stroke-miterlimit="8" fill="none" fill-rule="evenodd"/><path d="M2091.5 188.785C1874.54 126.952 1857.77 356.566 1916.92 539.5" stroke="#E8695A" stroke-width="4.58333" stroke-miterlimit="8" fill="none" fill-rule="evenodd"/><path d="M1562.5 468.683C1619.86 225.284 1798.67 342.38 1912.5 536.5" stroke="#E8695A" stroke-width="6.875" stroke-miterlimit="8" fill="none" fill-rule="evenodd"/><path d="M1850.5 604.5C1850.5 563.631 1897.96 530.5 1956.5 530.5 2015.04 530.5 2062.5 563.631 2062.5 604.5 2062.5 645.369 2015.04 678.5 1956.5 678.5 1897.96 678.5 1850.5 645.369 1850.5 604.5Z" stroke="#E8695A" stroke-width="4.58333" stroke-miterlimit="8" fill="#E8695A" fill-rule="evenodd"/><path d="M1878.5 554.19C1946.29 547.246 2024.97 593.863 2047.5 640.5" stroke="#020A6A" stroke-width="6.875" stroke-miterlimit="8" fill="none" fill-rule="evenodd"/><path d="M1904.5 537.684C1973.41 534.2 2043.59 580.839 2058.5 627.5" stroke="#020A6A" stroke-width="6.875" stroke-miterlimit="8" fill="none" fill-rule="evenodd"/><path d="M1861.5 574.5C1957.08 575.161 2022.19 635.252 2036.5 652.5" stroke="#020A6A" stroke-width="6.875" stroke-miterlimit="8" fill="none" fill-rule="evenodd"/><path d="M1978.18 678.042C1980.45 635.971 2018.71 601.121 2064.71 593.701" stroke="#020A6A" stroke-width="6.875" stroke-miterlimit="8" fill="none" fill-rule="evenodd"/><path d="M1950.35 678.122C1964.3 610.615 2008.07 571.639 2045.12 560.095" stroke="#020A6A" stroke-width="6.875" stroke-miterlimit="8" fill="none" fill-rule="evenodd"/><path d="M1922.81 673.186C1951.21 580.242 1986.73 552.953 2011.4 537.284" stroke="#020A6A" stroke-width="6.875" stroke-miterlimit="8" fill="none" fill-rule="evenodd"/><path d="M1851.5 602.5C1851.5 561.631 1898.73 528.5 1957 528.5 2015.27 528.5 2062.5 561.631 2062.5 602.5 2062.5 643.369 2015.27 676.5 1957 676.5 1898.73 676.5 1851.5 643.369 1851.5 602.5Z" stroke="#E8695A" stroke-width="9.16667" stroke-miterlimit="8" fill="none" fill-rule="evenodd"/></g></svg>